<svg xmlns="http://www.w3.org/2000/svg" viewBox="0 0 800 800"><defs><style>.cls-1{fill:#f4f3ba;}.cls-2{fill:#d7df23;}.cls-3{fill:#006838;}</style></defs><g id="Layer_1" data-name="Layer 1"><polygon class="cls-1" points="618.63 400 400 400 509.32 210.66 618.63 400"/><polygon class="cls-2" points="618.63 400 509.32 589.34 400 400 618.63 400"/><polygon class="cls-1" points="509.32 589.34 290.68 589.34 400 400 509.32 589.34"/><polygon class="cls-2" points="400 400 290.68 589.34 181.37 400 400 400"/><polygon class="cls-1" points="400 400 181.37 400 290.68 210.66 400 400"/><polygon class="cls-2" points="509.32 210.66 400 400 290.68 210.66 509.32 210.66"/><path class="cls-3" d="M504.36,301.81a151.77,151.77,0,0,1,6.6,33.45,328.64,328.64,0,0,1,1.2,40.2,404.57,404.57,0,0,1-3.45,42.3,367.42,367.42,0,0,1-7.5,39.75,179.75,179.75,0,0,1-10.95,32.1,104.77,104.77,0,0,1-10.5,17.85A34.61,34.61,0,0,1,466,518.71q-8.1,3.6-20.4,1.8-15.92-2.1-27-10.65a65.25,65.25,0,0,1-17.85-21.15,108.35,108.35,0,0,1-10-26.85,153.72,153.72,0,0,1-3.9-28.35,260,260,0,0,1,1.65-32.25,350.23,350.23,0,0,1,6.45-39.15,255.67,255.67,0,0,1,12-39.3,158.05,158.05,0,0,1,17.7-33.3q10.19-14.4,23.7-20.7,14.1-6,25.2-2.55a39,39,0,0,1,18.9,13.05A69.49,69.49,0,0,1,504.36,301.81ZM466.56,507q9.6-7.2,16.05-20.85a142.6,142.6,0,0,0,10.2-31.5,307.86,307.86,0,0,0,5.4-37.35q1.64-19.5,1.65-38.55t-1.2-35.25q-1.2-16.2-3-27.3a113.88,113.88,0,0,0-3-12.15,87.12,87.12,0,0,0-5.55-13.95,40.91,40.91,0,0,0-7.95-11.25,13.24,13.24,0,0,0-10.2-4.05q-5.7.3-12.3,7.8-9.3,10.5-15.6,28.8a244.43,244.43,0,0,0-9.9,40.65,451.35,451.35,0,0,0-5,45.3,419.9,419.9,0,0,0-.45,43.2,263.4,263.4,0,0,0,3.3,33.75,81.79,81.79,0,0,0,4.35,13.5,63.69,63.69,0,0,0,7.95,14.25,23,23,0,0,0,11.1,8.55Q458.76,512.71,466.56,507Z"/><path class="cls-3" d="M309.52,492.53a15.7,15.7,0,0,0-4.51.74c-7.22,2.13-11.65,12-11.65,19.77a17.53,17.53,0,0,0,.25,3,9.56,9.56,0,0,1-3,.74,3.33,3.33,0,0,1-2.37-1,20.18,20.18,0,0,1-6.48-14.92,21.59,21.59,0,0,1,.57-5.09c2.88-12.34,13-23.19,21.26-32.28,10.93-12,22.86-23.15,34.74-34.23,7.71-7.19,15.15-14.6,22.49-22.16-4,3.19-9.14,4.48-13.82,6.42l3-1.22c-9.54,4-19.11,5.18-29.18,2.76-10.38-2.49-20.62-7.23-31.51-6.57-10.41.62-15.47,6.57-23.36,12.58,0,0,1.87-8,9.75-15.75,7-6.84,14.06-11.05,24.17-10.59,15.66.72,29.53,10.11,45.45,9.34,10.86-.52,22.95-6.8,32.38-11.55-9,10.8-17,22.41-26,33.11-9.73,11.49-20.14,22.39-29.35,34.31-2.79,3.61-6.23,6.31-8.78,9.84-6.56,8.12-11.48,13.94-16.48,22.8l7.13-3.53a6.84,6.84,0,0,1,2.55-.74,23,23,0,0,1,3.93-.33c12.53,0,26.43,8.32,37.27,13.75,12.33,6.19,23.86,13.76,36.41,19.53,16.08,7.41,32.95,13.83,50.59,16.21a94.88,94.88,0,0,0,26.29.06,82.9,82.9,0,0,0,13.12-3,53.28,53.28,0,0,0,19.66-10.72,220.23,220.23,0,0,0,21.33-21.33c-3.48,8.86-6.33,18.81-11.62,26.72S491.42,544.79,483,549.8c-15.57,9.27-34.83,8-51.85,4.17-18.42-4.14-37.25-10.46-54-19.08-16-8.19-29.34-20.82-44-31C326.58,499.32,317.94,492.53,309.52,492.53Z"/></g></svg>